<mxfile host="65bd71144e" modified="2021-01-15T19:59:05.499Z" agent="5.0 (Macintosh; Intel Mac OS X 10_15_6) AppleWebKit/537.36 (KHTML, like Gecko) Code/1.52.1 Chrome/83.0.4103.122 Electron/9.3.5 Safari/537.36" etag="HbH7vYYHchq8Q30FjSMt" version="13.10.0" type="embed">
    <diagram id="hgfTmlx0hqAPN2rs_2Wq" name="Page-1">
        <mxGraphModel dx="1772" dy="699" grid="1" gridSize="10" guides="1" tooltips="1" connect="1" arrows="1" fold="1" page="1" pageScale="1" pageWidth="850" pageHeight="1100" math="0" shadow="0">
            <root>
                <mxCell id="0"/>
                <mxCell id="1" parent="0"/>
                <mxCell id="U0h9A02HM4GVSYB717Zq-7" style="edgeStyle=orthogonalEdgeStyle;rounded=0;orthogonalLoop=1;jettySize=auto;html=1;exitX=0.5;exitY=1;exitDx=0;exitDy=0;" parent="1" edge="1">
                    <mxGeometry relative="1" as="geometry">
                        <mxPoint x="75" y="110" as="sourcePoint"/>
                        <mxPoint x="75" y="110" as="targetPoint"/>
                    </mxGeometry>
                </mxCell>
                <mxCell id="U0h9A02HM4GVSYB717Zq-27" style="edgeStyle=orthogonalEdgeStyle;rounded=0;orthogonalLoop=1;jettySize=auto;html=1;exitX=1;exitY=0.5;exitDx=0;exitDy=0;entryX=0;entryY=0.5;entryDx=0;entryDy=0;" parent="1" source="U0h9A02HM4GVSYB717Zq-9" target="U0h9A02HM4GVSYB717Zq-12" edge="1">
                    <mxGeometry relative="1" as="geometry"/>
                </mxCell>
                <mxCell id="U0h9A02HM4GVSYB717Zq-9" value="make repo" style="rounded=0;whiteSpace=wrap;html=1;fillColor=#f8cecc;strokeColor=#b85450;" parent="1" vertex="1">
                    <mxGeometry x="40" y="40" width="80" height="40" as="geometry"/>
                </mxCell>
                <mxCell id="U0h9A02HM4GVSYB717Zq-38" style="edgeStyle=orthogonalEdgeStyle;rounded=0;orthogonalLoop=1;jettySize=auto;html=1;exitX=0.25;exitY=0;exitDx=0;exitDy=0;entryX=0.75;entryY=1;entryDx=0;entryDy=0;" parent="1" source="U0h9A02HM4GVSYB717Zq-10" target="U0h9A02HM4GVSYB717Zq-18" edge="1">
                    <mxGeometry relative="1" as="geometry"/>
                </mxCell>
                <mxCell id="U0h9A02HM4GVSYB717Zq-67" style="edgeStyle=orthogonalEdgeStyle;rounded=0;orthogonalLoop=1;jettySize=auto;html=1;exitX=0.75;exitY=0;exitDx=0;exitDy=0;entryX=0.25;entryY=1;entryDx=0;entryDy=0;" parent="1" source="U0h9A02HM4GVSYB717Zq-10" target="U0h9A02HM4GVSYB717Zq-20" edge="1">
                    <mxGeometry relative="1" as="geometry"/>
                </mxCell>
                <mxCell id="U0h9A02HM4GVSYB717Zq-10" value="create" style="rounded=0;whiteSpace=wrap;html=1;fillColor=#f8cecc;strokeColor=#b85450;" parent="1" vertex="1">
                    <mxGeometry x="-30" y="430" width="80" height="40" as="geometry"/>
                </mxCell>
                <mxCell id="U0h9A02HM4GVSYB717Zq-29" style="edgeStyle=orthogonalEdgeStyle;rounded=0;orthogonalLoop=1;jettySize=auto;html=1;exitX=1;exitY=0.5;exitDx=0;exitDy=0;entryX=0;entryY=0.5;entryDx=0;entryDy=0;" parent="1" source="U0h9A02HM4GVSYB717Zq-11" target="U0h9A02HM4GVSYB717Zq-16" edge="1">
                    <mxGeometry relative="1" as="geometry"/>
                </mxCell>
                <mxCell id="U0h9A02HM4GVSYB717Zq-11" value="share repo" style="rounded=0;whiteSpace=wrap;html=1;fillColor=#f8cecc;strokeColor=#b85450;" parent="1" vertex="1">
                    <mxGeometry x="240" y="40" width="80" height="40" as="geometry"/>
                </mxCell>
                <mxCell id="U0h9A02HM4GVSYB717Zq-28" style="edgeStyle=orthogonalEdgeStyle;rounded=0;orthogonalLoop=1;jettySize=auto;html=1;exitX=1;exitY=0.5;exitDx=0;exitDy=0;entryX=0;entryY=0.5;entryDx=0;entryDy=0;" parent="1" source="U0h9A02HM4GVSYB717Zq-12" target="U0h9A02HM4GVSYB717Zq-11" edge="1">
                    <mxGeometry relative="1" as="geometry"/>
                </mxCell>
                <mxCell id="U0h9A02HM4GVSYB717Zq-12" value="meen template" style="rounded=0;whiteSpace=wrap;html=1;fillColor=#f8cecc;strokeColor=#b85450;" parent="1" vertex="1">
                    <mxGeometry x="140" y="40" width="80" height="40" as="geometry"/>
                </mxCell>
                <mxCell id="U0h9A02HM4GVSYB717Zq-30" style="edgeStyle=orthogonalEdgeStyle;rounded=0;orthogonalLoop=1;jettySize=auto;html=1;exitX=0.5;exitY=0;exitDx=0;exitDy=0;entryX=0.5;entryY=1;entryDx=0;entryDy=0;" parent="1" source="U0h9A02HM4GVSYB717Zq-13" target="U0h9A02HM4GVSYB717Zq-16" edge="1">
                    <mxGeometry relative="1" as="geometry"/>
                </mxCell>
                <mxCell id="U0h9A02HM4GVSYB717Zq-13" value="back end" style="rounded=0;whiteSpace=wrap;html=1;fillColor=#f8cecc;strokeColor=#b85450;" parent="1" vertex="1">
                    <mxGeometry x="140" y="120" width="80" height="40" as="geometry"/>
                </mxCell>
                <mxCell id="U0h9A02HM4GVSYB717Zq-31" style="edgeStyle=orthogonalEdgeStyle;rounded=0;orthogonalLoop=1;jettySize=auto;html=1;exitX=0.5;exitY=0;exitDx=0;exitDy=0;" parent="1" source="U0h9A02HM4GVSYB717Zq-14" edge="1">
                    <mxGeometry relative="1" as="geometry">
                        <mxPoint x="380" y="80" as="targetPoint"/>
                    </mxGeometry>
                </mxCell>
                <mxCell id="U0h9A02HM4GVSYB717Zq-14" value="front end" style="rounded=0;whiteSpace=wrap;html=1;fillColor=#f8cecc;strokeColor=#b85450;" parent="1" vertex="1">
                    <mxGeometry x="700" y="120" width="80" height="40" as="geometry"/>
                </mxCell>
                <mxCell id="U0h9A02HM4GVSYB717Zq-91" style="edgeStyle=orthogonalEdgeStyle;rounded=0;orthogonalLoop=1;jettySize=auto;html=1;exitX=1;exitY=0.5;exitDx=0;exitDy=0;entryX=0;entryY=0.5;entryDx=0;entryDy=0;" parent="1" source="U0h9A02HM4GVSYB717Zq-15" target="U0h9A02HM4GVSYB717Zq-13" edge="1">
                    <mxGeometry relative="1" as="geometry"/>
                </mxCell>
                <mxCell id="U0h9A02HM4GVSYB717Zq-15" value="Connect to cloud" style="rounded=0;whiteSpace=wrap;html=1;fillColor=#f8cecc;strokeColor=#b85450;" parent="1" vertex="1">
                    <mxGeometry x="30" y="120" width="80" height="40" as="geometry"/>
                </mxCell>
                <mxCell id="U0h9A02HM4GVSYB717Zq-16" value="MVP" style="rounded=0;whiteSpace=wrap;html=1;fillColor=#f8cecc;strokeColor=#b85450;" parent="1" vertex="1">
                    <mxGeometry x="340" y="40" width="80" height="40" as="geometry"/>
                </mxCell>
                <mxCell id="U0h9A02HM4GVSYB717Zq-35" style="edgeStyle=orthogonalEdgeStyle;rounded=0;orthogonalLoop=1;jettySize=auto;html=1;exitX=0;exitY=0.5;exitDx=0;exitDy=0;entryX=0.5;entryY=1;entryDx=0;entryDy=0;" parent="1" source="U0h9A02HM4GVSYB717Zq-17" target="U0h9A02HM4GVSYB717Zq-19" edge="1">
                    <mxGeometry relative="1" as="geometry">
                        <Array as="points">
                            <mxPoint x="-130" y="450"/>
                        </Array>
                    </mxGeometry>
                </mxCell>
                <mxCell id="U0h9A02HM4GVSYB717Zq-37" style="edgeStyle=orthogonalEdgeStyle;rounded=0;orthogonalLoop=1;jettySize=auto;html=1;exitX=0.75;exitY=0;exitDx=0;exitDy=0;entryX=0.14;entryY=1.021;entryDx=0;entryDy=0;entryPerimeter=0;" parent="1" source="U0h9A02HM4GVSYB717Zq-17" target="U0h9A02HM4GVSYB717Zq-18" edge="1">
                    <mxGeometry relative="1" as="geometry"/>
                </mxCell>
                <mxCell id="U0h9A02HM4GVSYB717Zq-17" value="show" style="rounded=0;whiteSpace=wrap;html=1;fillColor=#f8cecc;strokeColor=#b85450;" parent="1" vertex="1">
                    <mxGeometry x="-120" y="430" width="80" height="40" as="geometry"/>
                </mxCell>
                <mxCell id="U0h9A02HM4GVSYB717Zq-39" style="edgeStyle=orthogonalEdgeStyle;rounded=0;orthogonalLoop=1;jettySize=auto;html=1;exitX=0.5;exitY=0;exitDx=0;exitDy=0;entryX=0.5;entryY=1;entryDx=0;entryDy=0;" parent="1" source="U0h9A02HM4GVSYB717Zq-18" target="U0h9A02HM4GVSYB717Zq-21" edge="1">
                    <mxGeometry relative="1" as="geometry"/>
                </mxCell>
                <mxCell id="U0h9A02HM4GVSYB717Zq-18" value="edit" style="rounded=0;whiteSpace=wrap;html=1;fillColor=#f8cecc;strokeColor=#b85450;" parent="1" vertex="1">
                    <mxGeometry x="-70" y="370" width="80" height="40" as="geometry"/>
                </mxCell>
                <mxCell id="U0h9A02HM4GVSYB717Zq-19" value="delete" style="rounded=0;whiteSpace=wrap;html=1;fillColor=#f8cecc;strokeColor=#b85450;" parent="1" vertex="1">
                    <mxGeometry x="-170" y="370" width="80" height="40" as="geometry"/>
                </mxCell>
                <mxCell id="U0h9A02HM4GVSYB717Zq-66" style="edgeStyle=orthogonalEdgeStyle;rounded=0;orthogonalLoop=1;jettySize=auto;html=1;exitX=0;exitY=0.5;exitDx=0;exitDy=0;entryX=1;entryY=0.5;entryDx=0;entryDy=0;" parent="1" source="U0h9A02HM4GVSYB717Zq-20" target="U0h9A02HM4GVSYB717Zq-18" edge="1">
                    <mxGeometry relative="1" as="geometry"/>
                </mxCell>
                <mxCell id="U0h9A02HM4GVSYB717Zq-20" value="update" style="rounded=0;whiteSpace=wrap;html=1;fillColor=#f8cecc;strokeColor=#b85450;" parent="1" vertex="1">
                    <mxGeometry x="30" y="370" width="80" height="40" as="geometry"/>
                </mxCell>
                <mxCell id="U0h9A02HM4GVSYB717Zq-56" style="edgeStyle=orthogonalEdgeStyle;rounded=0;orthogonalLoop=1;jettySize=auto;html=1;exitX=0.5;exitY=0;exitDx=0;exitDy=0;entryX=0.5;entryY=1;entryDx=0;entryDy=0;" parent="1" source="U0h9A02HM4GVSYB717Zq-21" target="U0h9A02HM4GVSYB717Zq-58" edge="1">
                    <mxGeometry relative="1" as="geometry">
                        <mxPoint x="110" y="270" as="targetPoint"/>
                    </mxGeometry>
                </mxCell>
                <mxCell id="U0h9A02HM4GVSYB717Zq-21" value="routes" style="rounded=0;whiteSpace=wrap;html=1;fillColor=#f8cecc;strokeColor=#b85450;" parent="1" vertex="1">
                    <mxGeometry x="-70" y="310" width="80" height="40" as="geometry"/>
                </mxCell>
                <mxCell id="U0h9A02HM4GVSYB717Zq-94" style="edgeStyle=orthogonalEdgeStyle;rounded=0;orthogonalLoop=1;jettySize=auto;html=1;exitX=0.5;exitY=0;exitDx=0;exitDy=0;entryX=0.5;entryY=1;entryDx=0;entryDy=0;" parent="1" source="U0h9A02HM4GVSYB717Zq-22" target="U0h9A02HM4GVSYB717Zq-13" edge="1">
                    <mxGeometry relative="1" as="geometry">
                        <Array as="points">
                            <mxPoint x="240" y="160"/>
                        </Array>
                    </mxGeometry>
                </mxCell>
                <mxCell id="U0h9A02HM4GVSYB717Zq-22" value="controllers" style="rounded=0;whiteSpace=wrap;html=1;fillColor=#f8cecc;strokeColor=#b85450;" parent="1" vertex="1">
                    <mxGeometry x="200" y="180" width="80" height="40" as="geometry"/>
                </mxCell>
                <mxCell id="U0h9A02HM4GVSYB717Zq-65" style="edgeStyle=orthogonalEdgeStyle;rounded=0;orthogonalLoop=1;jettySize=auto;html=1;exitX=0;exitY=0.5;exitDx=0;exitDy=0;entryX=1;entryY=0.5;entryDx=0;entryDy=0;" parent="1" source="U0h9A02HM4GVSYB717Zq-23" target="U0h9A02HM4GVSYB717Zq-26" edge="1">
                    <mxGeometry relative="1" as="geometry"/>
                </mxCell>
                <mxCell id="U0h9A02HM4GVSYB717Zq-23" value="models" style="rounded=0;whiteSpace=wrap;html=1;fillColor=#f8cecc;strokeColor=#b85450;" parent="1" vertex="1">
                    <mxGeometry x="80" y="490" width="80" height="40" as="geometry"/>
                </mxCell>
                <mxCell id="U0h9A02HM4GVSYB717Zq-64" style="edgeStyle=orthogonalEdgeStyle;rounded=0;orthogonalLoop=1;jettySize=auto;html=1;exitX=0.5;exitY=0;exitDx=0;exitDy=0;entryX=0.5;entryY=1;entryDx=0;entryDy=0;" parent="1" source="U0h9A02HM4GVSYB717Zq-24" target="U0h9A02HM4GVSYB717Zq-23" edge="1">
                    <mxGeometry relative="1" as="geometry"/>
                </mxCell>
                <mxCell id="U0h9A02HM4GVSYB717Zq-24" value="Schema" style="rounded=0;whiteSpace=wrap;html=1;fillColor=#f8cecc;strokeColor=#b85450;" parent="1" vertex="1">
                    <mxGeometry x="80" y="550" width="80" height="40" as="geometry"/>
                </mxCell>
                <mxCell id="U0h9A02HM4GVSYB717Zq-32" style="edgeStyle=orthogonalEdgeStyle;rounded=0;orthogonalLoop=1;jettySize=auto;html=1;exitX=0.5;exitY=0;exitDx=0;exitDy=0;entryX=0.25;entryY=1;entryDx=0;entryDy=0;" parent="1" source="U0h9A02HM4GVSYB717Zq-25" target="U0h9A02HM4GVSYB717Zq-26" edge="1">
                    <mxGeometry relative="1" as="geometry"/>
                </mxCell>
                <mxCell id="U0h9A02HM4GVSYB717Zq-34" style="edgeStyle=orthogonalEdgeStyle;rounded=0;orthogonalLoop=1;jettySize=auto;html=1;exitX=0.25;exitY=0;exitDx=0;exitDy=0;entryX=0.5;entryY=1;entryDx=0;entryDy=0;" parent="1" source="U0h9A02HM4GVSYB717Zq-25" target="U0h9A02HM4GVSYB717Zq-17" edge="1">
                    <mxGeometry relative="1" as="geometry"/>
                </mxCell>
                <mxCell id="U0h9A02HM4GVSYB717Zq-25" value="index" style="rounded=0;whiteSpace=wrap;html=1;fillColor=#f8cecc;strokeColor=#b85450;" parent="1" vertex="1">
                    <mxGeometry x="-70" y="550" width="80" height="40" as="geometry"/>
                </mxCell>
                <mxCell id="U0h9A02HM4GVSYB717Zq-33" style="edgeStyle=orthogonalEdgeStyle;rounded=0;orthogonalLoop=1;jettySize=auto;html=1;exitX=0.5;exitY=0;exitDx=0;exitDy=0;entryX=0.5;entryY=1;entryDx=0;entryDy=0;" parent="1" source="U0h9A02HM4GVSYB717Zq-26" target="U0h9A02HM4GVSYB717Zq-10" edge="1">
                    <mxGeometry relative="1" as="geometry"/>
                </mxCell>
                <mxCell id="U0h9A02HM4GVSYB717Zq-26" value="new" style="rounded=0;whiteSpace=wrap;html=1;fillColor=#f8cecc;strokeColor=#b85450;" parent="1" vertex="1">
                    <mxGeometry x="-30" y="490" width="80" height="40" as="geometry"/>
                </mxCell>
                <mxCell id="U0h9A02HM4GVSYB717Zq-95" style="edgeStyle=orthogonalEdgeStyle;rounded=0;orthogonalLoop=1;jettySize=auto;html=1;exitX=0.5;exitY=0;exitDx=0;exitDy=0;entryX=0.5;entryY=1;entryDx=0;entryDy=0;" parent="1" source="U0h9A02HM4GVSYB717Zq-57" target="U0h9A02HM4GVSYB717Zq-22" edge="1">
                    <mxGeometry relative="1" as="geometry">
                        <Array as="points">
                            <mxPoint x="310" y="240"/>
                            <mxPoint x="240" y="240"/>
                        </Array>
                    </mxGeometry>
                </mxCell>
                <mxCell id="U0h9A02HM4GVSYB717Zq-57" value="avatar" style="rounded=0;whiteSpace=wrap;html=1;fillColor=#f8cecc;strokeColor=#b85450;" parent="1" vertex="1">
                    <mxGeometry x="270" y="250" width="80" height="40" as="geometry"/>
                </mxCell>
                <mxCell id="U0h9A02HM4GVSYB717Zq-92" style="edgeStyle=orthogonalEdgeStyle;rounded=0;orthogonalLoop=1;jettySize=auto;html=1;exitX=0.5;exitY=0;exitDx=0;exitDy=0;entryX=0.5;entryY=1;entryDx=0;entryDy=0;" parent="1" source="U0h9A02HM4GVSYB717Zq-58" target="U0h9A02HM4GVSYB717Zq-22" edge="1">
                    <mxGeometry relative="1" as="geometry">
                        <mxPoint x="70" y="210" as="targetPoint"/>
                        <Array as="points">
                            <mxPoint x="-30" y="240"/>
                            <mxPoint x="240" y="240"/>
                        </Array>
                    </mxGeometry>
                </mxCell>
                <mxCell id="U0h9A02HM4GVSYB717Zq-58" value="account" style="rounded=0;whiteSpace=wrap;html=1;fillColor=#f8cecc;strokeColor=#b85450;" parent="1" vertex="1">
                    <mxGeometry x="-70" y="250" width="80" height="40" as="geometry"/>
                </mxCell>
                <mxCell id="U0h9A02HM4GVSYB717Zq-68" style="edgeStyle=orthogonalEdgeStyle;rounded=0;orthogonalLoop=1;jettySize=auto;html=1;exitX=0.25;exitY=0;exitDx=0;exitDy=0;entryX=0.75;entryY=1;entryDx=0;entryDy=0;" parent="1" source="U0h9A02HM4GVSYB717Zq-70" target="U0h9A02HM4GVSYB717Zq-75" edge="1">
                    <mxGeometry relative="1" as="geometry"/>
                </mxCell>
                <mxCell id="U0h9A02HM4GVSYB717Zq-69" style="edgeStyle=orthogonalEdgeStyle;rounded=0;orthogonalLoop=1;jettySize=auto;html=1;exitX=0.75;exitY=0;exitDx=0;exitDy=0;entryX=0.25;entryY=1;entryDx=0;entryDy=0;" parent="1" source="U0h9A02HM4GVSYB717Zq-70" target="U0h9A02HM4GVSYB717Zq-78" edge="1">
                    <mxGeometry relative="1" as="geometry"/>
                </mxCell>
                <mxCell id="U0h9A02HM4GVSYB717Zq-70" value="create" style="rounded=0;whiteSpace=wrap;html=1;fillColor=#f8cecc;strokeColor=#b85450;" parent="1" vertex="1">
                    <mxGeometry x="310" y="430" width="80" height="40" as="geometry"/>
                </mxCell>
                <mxCell id="U0h9A02HM4GVSYB717Zq-71" style="edgeStyle=orthogonalEdgeStyle;rounded=0;orthogonalLoop=1;jettySize=auto;html=1;exitX=0;exitY=0.5;exitDx=0;exitDy=0;entryX=0.5;entryY=1;entryDx=0;entryDy=0;" parent="1" source="U0h9A02HM4GVSYB717Zq-73" target="U0h9A02HM4GVSYB717Zq-76" edge="1">
                    <mxGeometry relative="1" as="geometry">
                        <Array as="points">
                            <mxPoint x="210" y="450"/>
                        </Array>
                    </mxGeometry>
                </mxCell>
                <mxCell id="U0h9A02HM4GVSYB717Zq-72" style="edgeStyle=orthogonalEdgeStyle;rounded=0;orthogonalLoop=1;jettySize=auto;html=1;exitX=0.75;exitY=0;exitDx=0;exitDy=0;entryX=0.14;entryY=1.021;entryDx=0;entryDy=0;entryPerimeter=0;" parent="1" source="U0h9A02HM4GVSYB717Zq-73" target="U0h9A02HM4GVSYB717Zq-75" edge="1">
                    <mxGeometry relative="1" as="geometry"/>
                </mxCell>
                <mxCell id="U0h9A02HM4GVSYB717Zq-73" value="show" style="rounded=0;whiteSpace=wrap;html=1;fillColor=#f8cecc;strokeColor=#b85450;" parent="1" vertex="1">
                    <mxGeometry x="220" y="430" width="80" height="40" as="geometry"/>
                </mxCell>
                <mxCell id="U0h9A02HM4GVSYB717Zq-74" style="edgeStyle=orthogonalEdgeStyle;rounded=0;orthogonalLoop=1;jettySize=auto;html=1;exitX=0.5;exitY=0;exitDx=0;exitDy=0;entryX=0.5;entryY=1;entryDx=0;entryDy=0;" parent="1" source="U0h9A02HM4GVSYB717Zq-75" target="U0h9A02HM4GVSYB717Zq-80" edge="1">
                    <mxGeometry relative="1" as="geometry"/>
                </mxCell>
                <mxCell id="U0h9A02HM4GVSYB717Zq-75" value="edit" style="rounded=0;whiteSpace=wrap;html=1;fillColor=#f8cecc;strokeColor=#b85450;" parent="1" vertex="1">
                    <mxGeometry x="270" y="370" width="80" height="40" as="geometry"/>
                </mxCell>
                <mxCell id="U0h9A02HM4GVSYB717Zq-76" value="delete" style="rounded=0;whiteSpace=wrap;html=1;fillColor=#f8cecc;strokeColor=#b85450;" parent="1" vertex="1">
                    <mxGeometry x="170" y="370" width="80" height="40" as="geometry"/>
                </mxCell>
                <mxCell id="U0h9A02HM4GVSYB717Zq-77" style="edgeStyle=orthogonalEdgeStyle;rounded=0;orthogonalLoop=1;jettySize=auto;html=1;exitX=0;exitY=0.5;exitDx=0;exitDy=0;entryX=1;entryY=0.5;entryDx=0;entryDy=0;" parent="1" source="U0h9A02HM4GVSYB717Zq-78" target="U0h9A02HM4GVSYB717Zq-75" edge="1">
                    <mxGeometry relative="1" as="geometry"/>
                </mxCell>
                <mxCell id="U0h9A02HM4GVSYB717Zq-78" value="update" style="rounded=0;whiteSpace=wrap;html=1;fillColor=#f8cecc;strokeColor=#b85450;" parent="1" vertex="1">
                    <mxGeometry x="370" y="370" width="80" height="40" as="geometry"/>
                </mxCell>
                <mxCell id="U0h9A02HM4GVSYB717Zq-79" style="edgeStyle=orthogonalEdgeStyle;rounded=0;orthogonalLoop=1;jettySize=auto;html=1;exitX=0.5;exitY=0;exitDx=0;exitDy=0;entryX=0.5;entryY=1;entryDx=0;entryDy=0;" parent="1" source="U0h9A02HM4GVSYB717Zq-80" edge="1">
                    <mxGeometry relative="1" as="geometry">
                        <mxPoint x="310" y="290" as="targetPoint"/>
                    </mxGeometry>
                </mxCell>
                <mxCell id="U0h9A02HM4GVSYB717Zq-80" value="routes" style="rounded=0;whiteSpace=wrap;html=1;fillColor=#f8cecc;strokeColor=#b85450;" parent="1" vertex="1">
                    <mxGeometry x="270" y="310" width="80" height="40" as="geometry"/>
                </mxCell>
                <mxCell id="U0h9A02HM4GVSYB717Zq-81" style="edgeStyle=orthogonalEdgeStyle;rounded=0;orthogonalLoop=1;jettySize=auto;html=1;exitX=0;exitY=0.5;exitDx=0;exitDy=0;entryX=1;entryY=0.5;entryDx=0;entryDy=0;" parent="1" source="U0h9A02HM4GVSYB717Zq-82" target="U0h9A02HM4GVSYB717Zq-89" edge="1">
                    <mxGeometry relative="1" as="geometry"/>
                </mxCell>
                <mxCell id="U0h9A02HM4GVSYB717Zq-82" value="models" style="rounded=0;whiteSpace=wrap;html=1;fillColor=#f8cecc;strokeColor=#b85450;" parent="1" vertex="1">
                    <mxGeometry x="420" y="490" width="80" height="40" as="geometry"/>
                </mxCell>
                <mxCell id="U0h9A02HM4GVSYB717Zq-83" style="edgeStyle=orthogonalEdgeStyle;rounded=0;orthogonalLoop=1;jettySize=auto;html=1;exitX=0.5;exitY=0;exitDx=0;exitDy=0;entryX=0.5;entryY=1;entryDx=0;entryDy=0;" parent="1" source="U0h9A02HM4GVSYB717Zq-84" target="U0h9A02HM4GVSYB717Zq-82" edge="1">
                    <mxGeometry relative="1" as="geometry"/>
                </mxCell>
                <mxCell id="U0h9A02HM4GVSYB717Zq-84" value="Schema" style="rounded=0;whiteSpace=wrap;html=1;fillColor=#f8cecc;strokeColor=#b85450;" parent="1" vertex="1">
                    <mxGeometry x="420" y="550" width="80" height="40" as="geometry"/>
                </mxCell>
                <mxCell id="U0h9A02HM4GVSYB717Zq-85" style="edgeStyle=orthogonalEdgeStyle;rounded=0;orthogonalLoop=1;jettySize=auto;html=1;exitX=0.5;exitY=0;exitDx=0;exitDy=0;entryX=0.25;entryY=1;entryDx=0;entryDy=0;" parent="1" source="U0h9A02HM4GVSYB717Zq-87" target="U0h9A02HM4GVSYB717Zq-89" edge="1">
                    <mxGeometry relative="1" as="geometry"/>
                </mxCell>
                <mxCell id="U0h9A02HM4GVSYB717Zq-86" style="edgeStyle=orthogonalEdgeStyle;rounded=0;orthogonalLoop=1;jettySize=auto;html=1;exitX=0.25;exitY=0;exitDx=0;exitDy=0;entryX=0.5;entryY=1;entryDx=0;entryDy=0;" parent="1" source="U0h9A02HM4GVSYB717Zq-87" target="U0h9A02HM4GVSYB717Zq-73" edge="1">
                    <mxGeometry relative="1" as="geometry"/>
                </mxCell>
                <mxCell id="U0h9A02HM4GVSYB717Zq-87" value="index" style="rounded=0;whiteSpace=wrap;html=1;fillColor=#f8cecc;strokeColor=#b85450;" parent="1" vertex="1">
                    <mxGeometry x="270" y="550" width="80" height="40" as="geometry"/>
                </mxCell>
                <mxCell id="U0h9A02HM4GVSYB717Zq-88" style="edgeStyle=orthogonalEdgeStyle;rounded=0;orthogonalLoop=1;jettySize=auto;html=1;exitX=0.5;exitY=0;exitDx=0;exitDy=0;entryX=0.5;entryY=1;entryDx=0;entryDy=0;" parent="1" source="U0h9A02HM4GVSYB717Zq-89" target="U0h9A02HM4GVSYB717Zq-70" edge="1">
                    <mxGeometry relative="1" as="geometry"/>
                </mxCell>
                <mxCell id="U0h9A02HM4GVSYB717Zq-89" value="new" style="rounded=0;whiteSpace=wrap;html=1;fillColor=#f8cecc;strokeColor=#b85450;" parent="1" vertex="1">
                    <mxGeometry x="310" y="490" width="80" height="40" as="geometry"/>
                </mxCell>
                <mxCell id="U0h9A02HM4GVSYB717Zq-129" style="edgeStyle=orthogonalEdgeStyle;rounded=0;orthogonalLoop=1;jettySize=auto;html=1;exitX=1;exitY=0.5;exitDx=0;exitDy=0;entryX=0.5;entryY=1;entryDx=0;entryDy=0;" parent="1" source="U0h9A02HM4GVSYB717Zq-119" target="U0h9A02HM4GVSYB717Zq-120" edge="1">
                    <mxGeometry relative="1" as="geometry"/>
                </mxCell>
                <mxCell id="U0h9A02HM4GVSYB717Zq-119" value="account/" style="rounded=0;whiteSpace=wrap;html=1;fillColor=#f8cecc;strokeColor=#b85450;" parent="1" vertex="1">
                    <mxGeometry x="520" y="240" width="80" height="40" as="geometry"/>
                </mxCell>
                <mxCell id="U0h9A02HM4GVSYB717Zq-123" style="edgeStyle=orthogonalEdgeStyle;rounded=0;orthogonalLoop=1;jettySize=auto;html=1;exitX=0.5;exitY=0;exitDx=0;exitDy=0;entryX=0;entryY=0.5;entryDx=0;entryDy=0;" parent="1" source="U0h9A02HM4GVSYB717Zq-120" target="U0h9A02HM4GVSYB717Zq-14" edge="1">
                    <mxGeometry relative="1" as="geometry"/>
                </mxCell>
                <mxCell id="U0h9A02HM4GVSYB717Zq-120" value="HTML/ejs" style="rounded=0;whiteSpace=wrap;html=1;fillColor=#f8cecc;strokeColor=#b85450;" parent="1" vertex="1">
                    <mxGeometry x="600" y="180" width="80" height="40" as="geometry"/>
                </mxCell>
                <mxCell id="U0h9A02HM4GVSYB717Zq-124" style="edgeStyle=orthogonalEdgeStyle;rounded=0;orthogonalLoop=1;jettySize=auto;html=1;exitX=0.5;exitY=0;exitDx=0;exitDy=0;entryX=0.5;entryY=1;entryDx=0;entryDy=0;" parent="1" source="U0h9A02HM4GVSYB717Zq-121" target="U0h9A02HM4GVSYB717Zq-14" edge="1">
                    <mxGeometry relative="1" as="geometry"/>
                </mxCell>
                <mxCell id="U0h9A02HM4GVSYB717Zq-121" value="CSS" style="rounded=0;whiteSpace=wrap;html=1;fillColor=#f8cecc;strokeColor=#b85450;" parent="1" vertex="1">
                    <mxGeometry x="700" y="180" width="80" height="40" as="geometry"/>
                </mxCell>
                <mxCell id="U0h9A02HM4GVSYB717Zq-125" style="edgeStyle=orthogonalEdgeStyle;rounded=0;orthogonalLoop=1;jettySize=auto;html=1;exitX=0.5;exitY=0;exitDx=0;exitDy=0;entryX=1;entryY=0.5;entryDx=0;entryDy=0;" parent="1" source="U0h9A02HM4GVSYB717Zq-122" target="U0h9A02HM4GVSYB717Zq-14" edge="1">
                    <mxGeometry relative="1" as="geometry"/>
                </mxCell>
                <mxCell id="U0h9A02HM4GVSYB717Zq-122" value="JS" style="rounded=0;whiteSpace=wrap;html=1;fillColor=#f8cecc;strokeColor=#b85450;" parent="1" vertex="1">
                    <mxGeometry x="800" y="180" width="80" height="40" as="geometry"/>
                </mxCell>
                <mxCell id="U0h9A02HM4GVSYB717Zq-132" style="edgeStyle=orthogonalEdgeStyle;rounded=0;orthogonalLoop=1;jettySize=auto;html=1;exitX=1;exitY=0.5;exitDx=0;exitDy=0;entryX=0.5;entryY=1;entryDx=0;entryDy=0;" parent="1" source="U0h9A02HM4GVSYB717Zq-126" target="U0h9A02HM4GVSYB717Zq-120" edge="1">
                    <mxGeometry relative="1" as="geometry"/>
                </mxCell>
                <mxCell id="U0h9A02HM4GVSYB717Zq-126" value="account/:id" style="rounded=0;whiteSpace=wrap;html=1;fillColor=#f8cecc;strokeColor=#b85450;" parent="1" vertex="1">
                    <mxGeometry x="520" y="420" width="80" height="40" as="geometry"/>
                </mxCell>
                <mxCell id="U0h9A02HM4GVSYB717Zq-130" style="edgeStyle=orthogonalEdgeStyle;rounded=0;orthogonalLoop=1;jettySize=auto;html=1;exitX=1;exitY=0.5;exitDx=0;exitDy=0;entryX=0.5;entryY=1;entryDx=0;entryDy=0;" parent="1" source="U0h9A02HM4GVSYB717Zq-127" target="U0h9A02HM4GVSYB717Zq-120" edge="1">
                    <mxGeometry relative="1" as="geometry">
                        <mxPoint x="640" y="250" as="targetPoint"/>
                    </mxGeometry>
                </mxCell>
                <mxCell id="U0h9A02HM4GVSYB717Zq-127" value="account/new" style="rounded=0;whiteSpace=wrap;html=1;fillColor=#f8cecc;strokeColor=#b85450;" parent="1" vertex="1">
                    <mxGeometry x="520" y="300" width="80" height="40" as="geometry"/>
                </mxCell>
                <mxCell id="U0h9A02HM4GVSYB717Zq-131" style="edgeStyle=orthogonalEdgeStyle;rounded=0;orthogonalLoop=1;jettySize=auto;html=1;exitX=1;exitY=0.5;exitDx=0;exitDy=0;entryX=0.5;entryY=1;entryDx=0;entryDy=0;" parent="1" source="U0h9A02HM4GVSYB717Zq-128" target="U0h9A02HM4GVSYB717Zq-120" edge="1">
                    <mxGeometry relative="1" as="geometry">
                        <mxPoint x="640" y="230" as="targetPoint"/>
                    </mxGeometry>
                </mxCell>
                <mxCell id="U0h9A02HM4GVSYB717Zq-128" value="account/:id/edit" style="rounded=0;whiteSpace=wrap;html=1;fillColor=#f8cecc;strokeColor=#b85450;" parent="1" vertex="1">
                    <mxGeometry x="520" y="360" width="80" height="40" as="geometry"/>
                </mxCell>
                <mxCell id="U0h9A02HM4GVSYB717Zq-150" style="edgeStyle=orthogonalEdgeStyle;rounded=0;orthogonalLoop=1;jettySize=auto;html=1;exitX=0.5;exitY=0;exitDx=0;exitDy=0;entryX=0.5;entryY=1;entryDx=0;entryDy=0;" parent="1" source="U0h9A02HM4GVSYB717Zq-135" target="U0h9A02HM4GVSYB717Zq-145" edge="1">
                    <mxGeometry relative="1" as="geometry"/>
                </mxCell>
                <mxCell id="U0h9A02HM4GVSYB717Zq-135" value="keyboard control" style="rounded=0;whiteSpace=wrap;html=1;fillColor=#f8cecc;strokeColor=#b85450;" parent="1" vertex="1">
                    <mxGeometry x="900" y="360" width="80" height="40" as="geometry"/>
                </mxCell>
                <mxCell id="U0h9A02HM4GVSYB717Zq-143" style="edgeStyle=orthogonalEdgeStyle;rounded=0;orthogonalLoop=1;jettySize=auto;html=1;exitX=0.5;exitY=0;exitDx=0;exitDy=0;entryX=0.5;entryY=1;entryDx=0;entryDy=0;" parent="1" source="U0h9A02HM4GVSYB717Zq-136" target="U0h9A02HM4GVSYB717Zq-138" edge="1">
                    <mxGeometry relative="1" as="geometry"/>
                </mxCell>
                <mxCell id="U0h9A02HM4GVSYB717Zq-136" value="stats" style="rounded=0;whiteSpace=wrap;html=1;fillColor=#f8cecc;strokeColor=#b85450;" parent="1" vertex="1">
                    <mxGeometry x="800" y="360" width="80" height="40" as="geometry"/>
                </mxCell>
                <mxCell id="U0h9A02HM4GVSYB717Zq-142" style="edgeStyle=orthogonalEdgeStyle;rounded=0;orthogonalLoop=1;jettySize=auto;html=1;" parent="1" source="U0h9A02HM4GVSYB717Zq-137" target="U0h9A02HM4GVSYB717Zq-139" edge="1">
                    <mxGeometry relative="1" as="geometry"/>
                </mxCell>
                <mxCell id="rNCTMx4dd2VN_rev5RC9-10" style="edgeStyle=orthogonalEdgeStyle;rounded=0;orthogonalLoop=1;jettySize=auto;html=1;entryX=1;entryY=0.5;entryDx=0;entryDy=0;" parent="1" source="U0h9A02HM4GVSYB717Zq-137" target="U0h9A02HM4GVSYB717Zq-135" edge="1">
                    <mxGeometry relative="1" as="geometry">
                        <Array as="points">
                            <mxPoint x="1000" y="260"/>
                            <mxPoint x="1000" y="380"/>
                        </Array>
                    </mxGeometry>
                </mxCell>
                <mxCell id="U0h9A02HM4GVSYB717Zq-137" value="movement" style="rounded=0;whiteSpace=wrap;html=1;fillColor=#f8cecc;strokeColor=#b85450;" parent="1" vertex="1">
                    <mxGeometry x="900" y="240" width="80" height="40" as="geometry"/>
                </mxCell>
                <mxCell id="U0h9A02HM4GVSYB717Zq-141" style="edgeStyle=orthogonalEdgeStyle;rounded=0;orthogonalLoop=1;jettySize=auto;html=1;exitX=0.5;exitY=0;exitDx=0;exitDy=0;" parent="1" source="U0h9A02HM4GVSYB717Zq-138" target="U0h9A02HM4GVSYB717Zq-139" edge="1">
                    <mxGeometry relative="1" as="geometry"/>
                </mxCell>
                <mxCell id="rNCTMx4dd2VN_rev5RC9-4" style="edgeStyle=orthogonalEdgeStyle;rounded=0;orthogonalLoop=1;jettySize=auto;html=1;entryX=1;entryY=0.5;entryDx=0;entryDy=0;" parent="1" source="U0h9A02HM4GVSYB717Zq-138" target="rNCTMx4dd2VN_rev5RC9-3" edge="1">
                    <mxGeometry relative="1" as="geometry"/>
                </mxCell>
                <mxCell id="U0h9A02HM4GVSYB717Zq-138" value="fighter" style="rounded=0;whiteSpace=wrap;html=1;fillColor=#f8cecc;strokeColor=#b85450;" parent="1" vertex="1">
                    <mxGeometry x="800" y="300" width="80" height="40" as="geometry"/>
                </mxCell>
                <mxCell id="U0h9A02HM4GVSYB717Zq-140" style="edgeStyle=orthogonalEdgeStyle;rounded=0;orthogonalLoop=1;jettySize=auto;html=1;exitX=0.5;exitY=0;exitDx=0;exitDy=0;entryX=0.5;entryY=1;entryDx=0;entryDy=0;" parent="1" source="U0h9A02HM4GVSYB717Zq-139" target="U0h9A02HM4GVSYB717Zq-122" edge="1">
                    <mxGeometry relative="1" as="geometry"/>
                </mxCell>
                <mxCell id="U0h9A02HM4GVSYB717Zq-139" value="interact class" style="rounded=0;whiteSpace=wrap;html=1;fillColor=#f8cecc;strokeColor=#b85450;" parent="1" vertex="1">
                    <mxGeometry x="800" y="240" width="80" height="40" as="geometry"/>
                </mxCell>
                <mxCell id="U0h9A02HM4GVSYB717Zq-149" style="edgeStyle=orthogonalEdgeStyle;rounded=0;orthogonalLoop=1;jettySize=auto;html=1;exitX=0;exitY=0.5;exitDx=0;exitDy=0;entryX=1;entryY=0.5;entryDx=0;entryDy=0;" parent="1" source="U0h9A02HM4GVSYB717Zq-145" target="U0h9A02HM4GVSYB717Zq-138" edge="1">
                    <mxGeometry relative="1" as="geometry"/>
                </mxCell>
                <mxCell id="U0h9A02HM4GVSYB717Zq-145" value="player" style="rounded=0;whiteSpace=wrap;html=1;fillColor=#f8cecc;strokeColor=#b85450;" parent="1" vertex="1">
                    <mxGeometry x="900" y="300" width="80" height="40" as="geometry"/>
                </mxCell>
                <mxCell id="U0h9A02HM4GVSYB717Zq-152" style="edgeStyle=orthogonalEdgeStyle;rounded=0;orthogonalLoop=1;jettySize=auto;html=1;" parent="1" source="U0h9A02HM4GVSYB717Zq-151" edge="1">
                    <mxGeometry relative="1" as="geometry">
                        <mxPoint x="640" y="220" as="targetPoint"/>
                    </mxGeometry>
                </mxCell>
                <mxCell id="U0h9A02HM4GVSYB717Zq-151" value="game screen" style="rounded=0;whiteSpace=wrap;html=1;fillColor=#f8cecc;strokeColor=#b85450;" parent="1" vertex="1">
                    <mxGeometry x="680" y="480" width="80" height="40" as="geometry"/>
                </mxCell>
                <mxCell id="U0h9A02HM4GVSYB717Zq-156" style="edgeStyle=orthogonalEdgeStyle;rounded=0;orthogonalLoop=1;jettySize=auto;html=1;exitX=0.5;exitY=1;exitDx=0;exitDy=0;entryX=0.5;entryY=0;entryDx=0;entryDy=0;" parent="1" source="U0h9A02HM4GVSYB717Zq-153" target="U0h9A02HM4GVSYB717Zq-151" edge="1">
                    <mxGeometry relative="1" as="geometry"/>
                </mxCell>
                <mxCell id="U0h9A02HM4GVSYB717Zq-153" value="game win" style="rounded=0;whiteSpace=wrap;html=1;fillColor=#f8cecc;strokeColor=#b85450;" parent="1" vertex="1">
                    <mxGeometry x="680" y="420" width="80" height="40" as="geometry"/>
                </mxCell>
                <mxCell id="U0h9A02HM4GVSYB717Zq-155" style="edgeStyle=orthogonalEdgeStyle;rounded=0;orthogonalLoop=1;jettySize=auto;html=1;exitX=0.5;exitY=0;exitDx=0;exitDy=0;entryX=0.5;entryY=1;entryDx=0;entryDy=0;" parent="1" source="U0h9A02HM4GVSYB717Zq-154" target="U0h9A02HM4GVSYB717Zq-151" edge="1">
                    <mxGeometry relative="1" as="geometry"/>
                </mxCell>
                <mxCell id="U0h9A02HM4GVSYB717Zq-154" value="game over" style="rounded=0;whiteSpace=wrap;html=1;fillColor=#f8cecc;strokeColor=#b85450;" parent="1" vertex="1">
                    <mxGeometry x="680" y="540" width="80" height="40" as="geometry"/>
                </mxCell>
                <mxCell id="rNCTMx4dd2VN_rev5RC9-2" style="edgeStyle=orthogonalEdgeStyle;rounded=0;orthogonalLoop=1;jettySize=auto;html=1;" parent="1" source="rNCTMx4dd2VN_rev5RC9-1" target="U0h9A02HM4GVSYB717Zq-13" edge="1">
                    <mxGeometry relative="1" as="geometry"/>
                </mxCell>
                <mxCell id="rNCTMx4dd2VN_rev5RC9-1" value="server.js" style="rounded=0;whiteSpace=wrap;html=1;fillColor=#f8cecc;strokeColor=#b85450;" parent="1" vertex="1">
                    <mxGeometry x="90" y="180" width="80" height="40" as="geometry"/>
                </mxCell>
                <mxCell id="rNCTMx4dd2VN_rev5RC9-5" style="edgeStyle=orthogonalEdgeStyle;rounded=0;orthogonalLoop=1;jettySize=auto;html=1;entryX=0.5;entryY=1;entryDx=0;entryDy=0;" parent="1" source="rNCTMx4dd2VN_rev5RC9-3" target="U0h9A02HM4GVSYB717Zq-121" edge="1">
                    <mxGeometry relative="1" as="geometry"/>
                </mxCell>
                <mxCell id="rNCTMx4dd2VN_rev5RC9-3" value="animation fighter" style="rounded=0;whiteSpace=wrap;html=1;fillColor=#f8cecc;strokeColor=#b85450;" parent="1" vertex="1">
                    <mxGeometry x="700" y="300" width="80" height="40" as="geometry"/>
                </mxCell>
                <mxCell id="rNCTMx4dd2VN_rev5RC9-7" style="edgeStyle=orthogonalEdgeStyle;rounded=0;orthogonalLoop=1;jettySize=auto;html=1;entryX=0.5;entryY=1;entryDx=0;entryDy=0;" parent="1" source="rNCTMx4dd2VN_rev5RC9-6" target="U0h9A02HM4GVSYB717Zq-120" edge="1">
                    <mxGeometry relative="1" as="geometry">
                        <Array as="points">
                            <mxPoint x="640" y="500"/>
                        </Array>
                    </mxGeometry>
                </mxCell>
                <mxCell id="rNCTMx4dd2VN_rev5RC9-6" value="avatar/new" style="rounded=0;whiteSpace=wrap;html=1;fillColor=#f8cecc;strokeColor=#b85450;" parent="1" vertex="1">
                    <mxGeometry x="520" y="480" width="80" height="40" as="geometry"/>
                </mxCell>
                <mxCell id="rNCTMx4dd2VN_rev5RC9-9" style="edgeStyle=orthogonalEdgeStyle;rounded=0;orthogonalLoop=1;jettySize=auto;html=1;" parent="1" source="rNCTMx4dd2VN_rev5RC9-8" edge="1">
                    <mxGeometry relative="1" as="geometry">
                        <mxPoint x="640" y="220" as="targetPoint"/>
                    </mxGeometry>
                </mxCell>
                <mxCell id="rNCTMx4dd2VN_rev5RC9-8" value="avatar/:id/edit" style="rounded=0;whiteSpace=wrap;html=1;fillColor=#f8cecc;strokeColor=#b85450;" parent="1" vertex="1">
                    <mxGeometry x="520" y="540" width="80" height="40" as="geometry"/>
                </mxCell>
            </root>
        </mxGraphModel>
    </diagram>
</mxfile>